G04*
G04 #@! TF.GenerationSoftware,Altium Limited,Altium Designer,19.1.7 (138)*
G04*
G04 Layer_Physical_Order=1*
G04 Layer_Color=255*
%FSLAX25Y25*%
%MOIN*%
G70*
G01*
G75*
%ADD10C,0.02000*%
%ADD16R,0.02559X0.06004*%
%ADD17R,0.06693X0.10472*%
%ADD18R,0.06693X0.06693*%
%ADD19R,0.03150X0.08661*%
%ADD20R,0.03543X0.03937*%
%ADD30C,0.10200*%
%ADD33C,0.10000*%
%ADD34C,0.05000*%
%ADD35R,0.18400X0.17600*%
%ADD36R,0.17200X0.17200*%
%ADD37R,0.19000X0.15400*%
%ADD38R,0.14330X0.14600*%
%ADD39R,0.17400X0.16200*%
%ADD40R,1.59200X0.24400*%
%ADD41R,0.06555X0.06555*%
%ADD42C,0.06555*%
%ADD43C,0.09744*%
%ADD44C,0.08700*%
%ADD45R,0.06201X0.06201*%
%ADD46C,0.06201*%
%ADD47C,0.05000*%
G36*
X433800Y202000D02*
X388542D01*
X388351Y202462D01*
X401402Y215513D01*
X402015Y215984D01*
X402929Y217175D01*
X403503Y218561D01*
X403699Y220049D01*
X403503Y221537D01*
X402929Y222924D01*
X402015Y224114D01*
X400825Y225028D01*
X399438Y225603D01*
X397950Y225798D01*
X396777Y225644D01*
X387527Y234894D01*
Y250905D01*
X400611Y263989D01*
X401108Y264637D01*
X401420Y265391D01*
X401474Y265795D01*
X401527Y266200D01*
X401527Y266200D01*
Y299500D01*
X402100D01*
Y306900D01*
X394700D01*
Y299500D01*
X395273D01*
Y267495D01*
X391815Y264037D01*
X391391Y264320D01*
X391420Y264391D01*
X391527Y265200D01*
X391527Y265200D01*
Y301196D01*
X391632Y301334D01*
X392005Y302234D01*
X392132Y303200D01*
X392005Y304166D01*
X391632Y305066D01*
X391039Y305839D01*
X390266Y306432D01*
X389366Y306805D01*
X388400Y306932D01*
X387434Y306805D01*
X386534Y306432D01*
X385761Y305839D01*
X385168Y305066D01*
X384795Y304166D01*
X384668Y303200D01*
X384795Y302234D01*
X385168Y301334D01*
X385273Y301196D01*
Y266495D01*
X375989Y257211D01*
X375492Y256563D01*
X375180Y255809D01*
X375073Y255000D01*
X375073Y255000D01*
Y237494D01*
X363223Y225644D01*
X362050Y225798D01*
X360562Y225603D01*
X359175Y225028D01*
X357985Y224114D01*
X357071Y222924D01*
X356497Y221537D01*
X356301Y220049D01*
X356497Y218561D01*
X357071Y217175D01*
X357985Y215984D01*
X359175Y215070D01*
X360562Y214496D01*
X362050Y214300D01*
X363538Y214496D01*
X364925Y215070D01*
X366115Y215984D01*
X367029Y217175D01*
X367603Y218561D01*
X367799Y220049D01*
X367645Y221222D01*
X380411Y233988D01*
X380773Y234460D01*
X381273Y234291D01*
Y233599D01*
X381273Y233599D01*
X381380Y232790D01*
X381692Y232036D01*
X382189Y231388D01*
X391745Y221832D01*
X379761Y209848D01*
X310352D01*
X296723Y223477D01*
X296957Y223950D01*
X298050Y223807D01*
X299342Y223977D01*
X300546Y224475D01*
X301580Y225269D01*
X302374Y226303D01*
X302873Y227507D01*
X303043Y228799D01*
X302873Y230091D01*
X302374Y231295D01*
X301580Y232330D01*
X300546Y233123D01*
X299342Y233622D01*
X298050Y233792D01*
X296758Y233622D01*
X295554Y233123D01*
X294520Y232330D01*
X293726Y231295D01*
X293227Y230091D01*
X293057Y228799D01*
X293227Y227507D01*
X293726Y226303D01*
X294062Y225865D01*
X293747Y225454D01*
X293625Y225505D01*
X292163Y225697D01*
X292163Y225697D01*
X275766D01*
X275000Y225798D01*
X273512Y225603D01*
X272125Y225028D01*
X270935Y224114D01*
X270021Y222924D01*
X269447Y221537D01*
X269251Y220049D01*
X269447Y218561D01*
X270021Y217175D01*
X270935Y215984D01*
X272125Y215070D01*
X273512Y214496D01*
X275000Y214300D01*
X275766Y214401D01*
X289823D01*
X301762Y202462D01*
X301571Y202000D01*
X244526D01*
X244335Y202462D01*
X273827Y231954D01*
X275000Y231800D01*
X276488Y231996D01*
X277875Y232570D01*
X279065Y233484D01*
X279979Y234675D01*
X280553Y236061D01*
X280749Y237549D01*
X280553Y239037D01*
X279979Y240424D01*
X279065Y241615D01*
X277875Y242528D01*
X276488Y243103D01*
X275000Y243298D01*
X273512Y243103D01*
X272125Y242528D01*
X270935Y241615D01*
X270021Y240424D01*
X269447Y239037D01*
X269251Y237549D01*
X269405Y236376D01*
X239827Y206798D01*
X229024D01*
X208527Y227295D01*
Y367400D01*
X208527Y367400D01*
X208420Y368209D01*
X208108Y368963D01*
X207611Y369611D01*
X207611Y369611D01*
X196239Y380983D01*
X195591Y381480D01*
X194837Y381792D01*
X194433Y381845D01*
X194028Y381899D01*
X194028Y381899D01*
X169772D01*
X169772Y381899D01*
X168963Y381792D01*
X168209Y381480D01*
X167561Y380983D01*
X151205Y364627D01*
X150708Y363980D01*
X150396Y363226D01*
X150343Y362821D01*
X150290Y362416D01*
X150290Y362416D01*
Y250112D01*
X129704Y229526D01*
X129230Y229759D01*
X129249Y229900D01*
X125500D01*
Y226151D01*
X125641Y226170D01*
X125874Y225696D01*
X124412Y224234D01*
X123988Y224178D01*
X123045Y223787D01*
X122234Y223165D01*
X121613Y222356D01*
X121222Y221412D01*
X121089Y220400D01*
X121222Y219388D01*
X121613Y218444D01*
X122234Y217635D01*
X123045Y217013D01*
X123988Y216622D01*
X125000Y216489D01*
X126012Y216622D01*
X126955Y217013D01*
X127766Y217635D01*
X128387Y218444D01*
X128778Y219388D01*
X128834Y219812D01*
X155627Y246605D01*
X156124Y247253D01*
X156437Y248007D01*
X156543Y248816D01*
Y361121D01*
X171067Y375645D01*
X182148D01*
X182194Y375413D01*
X182195Y375145D01*
X181097Y374303D01*
X180220Y373160D01*
X179669Y371829D01*
X179481Y370400D01*
X179669Y368971D01*
X180220Y367640D01*
X181097Y366497D01*
X182240Y365620D01*
X183572Y365069D01*
X185000Y364881D01*
X186428Y365069D01*
X187760Y365620D01*
X188903Y366497D01*
X189780Y367640D01*
X190331Y368971D01*
X190519Y370400D01*
X190331Y371829D01*
X189780Y373160D01*
X188903Y374303D01*
X187805Y375145D01*
X187806Y375413D01*
X187852Y375645D01*
X192733D01*
X202273Y366105D01*
Y226000D01*
X202273Y226000D01*
X202380Y225191D01*
X202692Y224437D01*
X203189Y223789D01*
X224516Y202462D01*
X224325Y202000D01*
X116800D01*
Y432000D01*
X136135D01*
X136357Y431552D01*
X135908Y430968D01*
X135344Y429605D01*
X135152Y428143D01*
X135344Y426681D01*
X135908Y425319D01*
X136806Y424149D01*
X136854Y424113D01*
Y422307D01*
X140066D01*
X145190Y417183D01*
X145554Y416303D01*
X145752Y416046D01*
Y402200D01*
X145944Y400738D01*
X146508Y399376D01*
X147406Y398206D01*
X148576Y397308D01*
X149938Y396744D01*
X151400Y396552D01*
X152862Y396744D01*
X154224Y397308D01*
X155394Y398206D01*
X156292Y399376D01*
X156856Y400738D01*
X157048Y402200D01*
Y418173D01*
X157048Y418173D01*
X157007Y418488D01*
X160826Y422307D01*
X164038D01*
Y424113D01*
X164085Y424149D01*
X164983Y425319D01*
X165547Y426681D01*
X165740Y428143D01*
X165547Y429605D01*
X164983Y430968D01*
X164535Y431552D01*
X164756Y432000D01*
X182624D01*
X182870Y431500D01*
X182308Y430767D01*
X181744Y429405D01*
X181552Y427943D01*
X181744Y426481D01*
X182308Y425119D01*
X183206Y423949D01*
X183254Y423913D01*
Y422107D01*
X186466D01*
X190752Y417821D01*
Y402400D01*
X190944Y400938D01*
X191508Y399576D01*
X192406Y398406D01*
X193576Y397508D01*
X194938Y396944D01*
X196400Y396752D01*
X197862Y396944D01*
X199224Y397508D01*
X200394Y398406D01*
X201292Y399576D01*
X201856Y400938D01*
X202048Y402400D01*
Y416854D01*
X202102Y416983D01*
X207226Y422107D01*
X210438D01*
Y423913D01*
X210485Y423949D01*
X211383Y425119D01*
X211947Y426481D01*
X212140Y427943D01*
X211947Y429405D01*
X211383Y430767D01*
X210821Y431500D01*
X211067Y432000D01*
X233243D01*
X233489Y431500D01*
X232817Y430624D01*
X232253Y429262D01*
X232060Y427800D01*
X232253Y426338D01*
X232817Y424976D01*
X233715Y423806D01*
X233762Y423770D01*
Y421964D01*
X236974D01*
X240067Y418871D01*
X239744Y418092D01*
X239552Y416630D01*
X239552Y416630D01*
Y404800D01*
X239744Y403338D01*
X240308Y401976D01*
X241206Y400806D01*
X242376Y399908D01*
X243738Y399344D01*
X245200Y399152D01*
X246662Y399344D01*
X248024Y399908D01*
X249194Y400806D01*
X250092Y401976D01*
X250656Y403338D01*
X250848Y404800D01*
Y414290D01*
X251348Y414790D01*
X251348Y414790D01*
X252246Y415960D01*
X252610Y416840D01*
X257734Y421964D01*
X260946D01*
Y423770D01*
X260994Y423806D01*
X261892Y424976D01*
X262456Y426338D01*
X262648Y427800D01*
X262456Y429262D01*
X261892Y430624D01*
X261220Y431500D01*
X261466Y432000D01*
X433800D01*
Y202000D01*
D02*
G37*
%LPC*%
G36*
X360400Y429248D02*
X353554D01*
X352092Y429056D01*
X350825Y428531D01*
X350580D01*
Y428376D01*
X349560Y427594D01*
X348663Y426424D01*
X348098Y425062D01*
X347906Y423600D01*
X348098Y422138D01*
X348663Y420776D01*
X349560Y419606D01*
X350580Y418824D01*
Y417869D01*
X352654D01*
Y423200D01*
X353654D01*
Y417869D01*
X357654D01*
Y423200D01*
X358654D01*
Y417869D01*
X362654D01*
Y423200D01*
Y428728D01*
X361862Y429056D01*
X360400Y429248D01*
D02*
G37*
G36*
X328602Y428848D02*
X321177D01*
X319715Y428656D01*
X319413Y428531D01*
X318602D01*
Y428195D01*
X318353Y428092D01*
X317183Y427194D01*
X316286Y426024D01*
X315721Y424662D01*
X315529Y423200D01*
X315721Y421738D01*
X316286Y420376D01*
X317183Y419206D01*
X318353Y418308D01*
X318602Y418205D01*
Y417869D01*
X319413D01*
X319715Y417744D01*
X321177Y417552D01*
X328602D01*
X330064Y417744D01*
X330366Y417869D01*
X330677D01*
Y423200D01*
Y428531D01*
X330366D01*
X330064Y428656D01*
X328602Y428848D01*
D02*
G37*
G36*
X296400D02*
X288800D01*
X287338Y428656D01*
X287036Y428531D01*
X286625D01*
Y428361D01*
X285976Y428092D01*
X284806Y427194D01*
X283908Y426024D01*
X283344Y424662D01*
X283152Y423200D01*
X283344Y421738D01*
X283908Y420376D01*
X284806Y419206D01*
X285976Y418308D01*
X286625Y418039D01*
Y417869D01*
X287036D01*
X287338Y417744D01*
X288800Y417552D01*
X296400D01*
X297862Y417744D01*
X298164Y417869D01*
X298700D01*
Y423200D01*
Y428531D01*
X298164D01*
X297862Y428656D01*
X296400Y428848D01*
D02*
G37*
G36*
X365729Y428531D02*
X363654D01*
Y423200D01*
Y417869D01*
X365729D01*
Y417873D01*
X365980Y418269D01*
X368022D01*
X369433Y416858D01*
Y394431D01*
X368121D01*
Y395369D01*
X363378D01*
Y390231D01*
X368121D01*
Y391169D01*
X369433D01*
Y387971D01*
X369557Y387347D01*
X369911Y386817D01*
X371175Y385554D01*
X371704Y385200D01*
X372328Y385076D01*
X376406D01*
X376569Y384913D01*
Y314256D01*
X375989Y313811D01*
X375492Y313163D01*
X375180Y312409D01*
X375073Y311600D01*
X375180Y310791D01*
X375492Y310037D01*
X375989Y309389D01*
X376637Y308892D01*
X377391Y308580D01*
X378200Y308473D01*
X379009Y308580D01*
X379763Y308892D01*
X380411Y309389D01*
X380908Y310037D01*
X381220Y310791D01*
X381327Y311600D01*
X381220Y312409D01*
X380908Y313163D01*
X380411Y313811D01*
X379831Y314256D01*
Y385589D01*
X379707Y386213D01*
X379353Y386742D01*
X378235Y387861D01*
X377706Y388214D01*
X377082Y388338D01*
X373004D01*
X372696Y388647D01*
Y392400D01*
X372696Y392400D01*
X372696Y392400D01*
Y417534D01*
X372696Y417534D01*
X372572Y418158D01*
X372218Y418687D01*
X370329Y420576D01*
Y428131D01*
X365980D01*
X365729Y428527D01*
Y428531D01*
D02*
G37*
G36*
X301775D02*
X299700D01*
Y423200D01*
Y417869D01*
X301775D01*
Y417873D01*
X302025Y418269D01*
X302569D01*
Y393631D01*
X301071D01*
Y395369D01*
X296328D01*
Y390231D01*
X301071D01*
Y390369D01*
X302569D01*
Y319476D01*
X289724Y306631D01*
X289000Y306727D01*
X288191Y306620D01*
X287437Y306308D01*
X286789Y305811D01*
X286292Y305163D01*
X285980Y304409D01*
X285873Y303600D01*
X285980Y302791D01*
X286292Y302037D01*
X286789Y301389D01*
X287437Y300892D01*
X288191Y300580D01*
X289000Y300473D01*
X289809Y300580D01*
X290563Y300892D01*
X291211Y301389D01*
X291708Y302037D01*
X292020Y302791D01*
X292127Y303600D01*
X292031Y304324D01*
X305353Y317647D01*
X305707Y318176D01*
X305831Y318800D01*
Y392000D01*
X305831Y392000D01*
Y418269D01*
X306375D01*
Y428131D01*
X302025D01*
X301775Y428527D01*
Y428531D01*
D02*
G37*
G36*
X362222Y395768D02*
X359950D01*
Y393300D01*
X362222D01*
Y395768D01*
D02*
G37*
G36*
X328697D02*
X326425D01*
Y393300D01*
X328697D01*
Y395768D01*
D02*
G37*
G36*
X295172D02*
X292900D01*
Y393300D01*
X295172D01*
Y395768D01*
D02*
G37*
G36*
X325425D02*
X323153D01*
Y393300D01*
X325425D01*
Y395768D01*
D02*
G37*
G36*
X358950D02*
X356679D01*
Y393300D01*
X358950D01*
Y395768D01*
D02*
G37*
G36*
X291900D02*
X289628D01*
Y393300D01*
X291900D01*
Y395768D01*
D02*
G37*
G36*
X362222Y392300D02*
X359950D01*
Y389831D01*
X362222D01*
Y392300D01*
D02*
G37*
G36*
X358950D02*
X356679D01*
Y389831D01*
X358950D01*
Y392300D01*
D02*
G37*
G36*
X328697D02*
X326425D01*
Y389831D01*
X328697D01*
Y392300D01*
D02*
G37*
G36*
X325425D02*
X323153D01*
Y389831D01*
X325425D01*
Y392300D01*
D02*
G37*
G36*
X295172D02*
X292900D01*
Y389831D01*
X295172D01*
Y392300D01*
D02*
G37*
G36*
X291900D02*
X289628D01*
Y389831D01*
X291900D01*
Y392300D01*
D02*
G37*
G36*
X125000Y375919D02*
X123572Y375731D01*
X122240Y375180D01*
X121097Y374303D01*
X120220Y373160D01*
X119669Y371829D01*
X119481Y370400D01*
X119669Y368971D01*
X120220Y367640D01*
X121097Y366497D01*
X122240Y365620D01*
X123572Y365069D01*
X125000Y364881D01*
X126428Y365069D01*
X127760Y365620D01*
X128903Y366497D01*
X129780Y367640D01*
X130331Y368971D01*
X130519Y370400D01*
X130331Y371829D01*
X129780Y373160D01*
X128903Y374303D01*
X127760Y375180D01*
X126428Y375731D01*
X125000Y375919D01*
D02*
G37*
G36*
X365172Y360368D02*
X362900D01*
Y357900D01*
X365172D01*
Y360368D01*
D02*
G37*
G36*
X361900D02*
X359628D01*
Y357900D01*
X361900D01*
Y360368D01*
D02*
G37*
G36*
X128878Y364278D02*
X121122D01*
Y356522D01*
X128878D01*
Y364278D01*
D02*
G37*
G36*
X185000Y364311D02*
X183988Y364178D01*
X183045Y363787D01*
X182235Y363165D01*
X181613Y362355D01*
X181222Y361412D01*
X181089Y360400D01*
X181222Y359388D01*
X181613Y358444D01*
X182235Y357634D01*
X183045Y357013D01*
X183988Y356622D01*
X185000Y356489D01*
X186012Y356622D01*
X186955Y357013D01*
X187766Y357634D01*
X188387Y358444D01*
X188778Y359388D01*
X188911Y360400D01*
X188778Y361412D01*
X188387Y362355D01*
X187766Y363165D01*
X186955Y363787D01*
X186012Y364178D01*
X185000Y364311D01*
D02*
G37*
G36*
X330600Y383327D02*
X329791Y383220D01*
X329037Y382908D01*
X328389Y382411D01*
X327892Y381763D01*
X327580Y381009D01*
X327473Y380200D01*
X327580Y379391D01*
X327892Y378637D01*
X328389Y377989D01*
X328719Y377736D01*
Y360479D01*
X328221D01*
Y353275D01*
X331979D01*
Y357118D01*
X331981Y357127D01*
Y372906D01*
X332481Y372938D01*
X332580Y372191D01*
X332892Y371437D01*
X333389Y370789D01*
X333469Y370728D01*
Y360479D01*
X333221D01*
Y353275D01*
X336980D01*
Y357535D01*
X337479Y357567D01*
X337582Y356791D01*
X337894Y356037D01*
X338221Y355611D01*
Y353275D01*
X341980D01*
Y354815D01*
X342165Y354892D01*
X342813Y355389D01*
X343104Y355769D01*
X353729D01*
Y354832D01*
X358472D01*
Y359968D01*
X353729D01*
Y359031D01*
X344707D01*
X344515Y359493D01*
X346895Y361873D01*
X349400D01*
X350209Y361980D01*
X350963Y362292D01*
X351611Y362789D01*
X352108Y363437D01*
X352420Y364191D01*
X352527Y365000D01*
X352420Y365809D01*
X352108Y366563D01*
X351611Y367211D01*
X350963Y367708D01*
X350209Y368020D01*
X349400Y368127D01*
X345600D01*
X345600Y368127D01*
X345195Y368074D01*
X344791Y368020D01*
X344037Y367708D01*
X343389Y367211D01*
X343389Y367211D01*
X338391Y362213D01*
X337894Y361565D01*
X337582Y360811D01*
X337479Y360035D01*
X336980Y360068D01*
Y360479D01*
X336731D01*
Y370113D01*
X337163Y370292D01*
X337811Y370789D01*
X338308Y371437D01*
X338620Y372191D01*
X338727Y373000D01*
X338620Y373809D01*
X338308Y374563D01*
X337811Y375211D01*
X337163Y375708D01*
X336409Y376020D01*
X335600Y376127D01*
X334791Y376020D01*
X334037Y375708D01*
X333389Y375211D01*
X332892Y374563D01*
X332580Y373809D01*
X332481Y373061D01*
X331981Y373094D01*
Y377417D01*
X332163Y377492D01*
X332811Y377989D01*
X333308Y378637D01*
X333620Y379391D01*
X333727Y380200D01*
X333620Y381009D01*
X333308Y381763D01*
X332811Y382411D01*
X332163Y382908D01*
X331409Y383220D01*
X330600Y383327D01*
D02*
G37*
G36*
X365172Y356900D02*
X362900D01*
Y354432D01*
X365172D01*
Y356900D01*
D02*
G37*
G36*
X361900D02*
X359628D01*
Y354432D01*
X361900D01*
Y356900D01*
D02*
G37*
G36*
X185000Y354311D02*
X183988Y354178D01*
X183045Y353787D01*
X182235Y353166D01*
X181613Y352356D01*
X181222Y351412D01*
X181089Y350400D01*
X181222Y349388D01*
X181613Y348445D01*
X182235Y347635D01*
X183045Y347013D01*
X183988Y346622D01*
X185000Y346489D01*
X186012Y346622D01*
X186955Y347013D01*
X187766Y347635D01*
X188387Y348445D01*
X188778Y349388D01*
X188911Y350400D01*
X188778Y351412D01*
X188387Y352356D01*
X187766Y353166D01*
X186955Y353787D01*
X186012Y354178D01*
X185000Y354311D01*
D02*
G37*
G36*
X125000D02*
X123988Y354178D01*
X123045Y353787D01*
X122234Y353166D01*
X121613Y352356D01*
X121222Y351412D01*
X121089Y350400D01*
X121222Y349388D01*
X121613Y348445D01*
X122234Y347635D01*
X123045Y347013D01*
X123988Y346622D01*
X125000Y346489D01*
X126012Y346622D01*
X126955Y347013D01*
X127766Y347635D01*
X128387Y348445D01*
X128778Y349388D01*
X128911Y350400D01*
X128778Y351412D01*
X128387Y352356D01*
X127766Y353166D01*
X126955Y353787D01*
X126012Y354178D01*
X125000Y354311D01*
D02*
G37*
G36*
X185000Y344311D02*
X183988Y344178D01*
X183045Y343787D01*
X182235Y343165D01*
X181613Y342355D01*
X181222Y341412D01*
X181089Y340400D01*
X181222Y339388D01*
X181613Y338444D01*
X182235Y337634D01*
X183045Y337013D01*
X183988Y336622D01*
X185000Y336489D01*
X186012Y336622D01*
X186955Y337013D01*
X187766Y337634D01*
X188387Y338444D01*
X188778Y339388D01*
X188911Y340400D01*
X188778Y341412D01*
X188387Y342355D01*
X187766Y343165D01*
X186955Y343787D01*
X186012Y344178D01*
X185000Y344311D01*
D02*
G37*
G36*
X125000D02*
X123988Y344178D01*
X123045Y343787D01*
X122234Y343165D01*
X121613Y342355D01*
X121222Y341412D01*
X121089Y340400D01*
X121222Y339388D01*
X121613Y338444D01*
X122234Y337634D01*
X123045Y337013D01*
X123988Y336622D01*
X125000Y336489D01*
X126012Y336622D01*
X126955Y337013D01*
X127766Y337634D01*
X128387Y338444D01*
X128778Y339388D01*
X128911Y340400D01*
X128778Y341412D01*
X128387Y342355D01*
X127766Y343165D01*
X126955Y343787D01*
X126012Y344178D01*
X125000Y344311D01*
D02*
G37*
G36*
X332380Y339525D02*
X330600D01*
Y336023D01*
X332380D01*
Y339525D01*
D02*
G37*
G36*
X329600D02*
X327820D01*
Y336023D01*
X329600D01*
Y339525D01*
D02*
G37*
G36*
X326979Y360479D02*
X323220D01*
Y355582D01*
X312446Y344808D01*
X312093Y344279D01*
X311969Y343655D01*
Y340456D01*
X311389Y340011D01*
X310892Y339363D01*
X310580Y338609D01*
X310473Y337800D01*
X310580Y336991D01*
X310892Y336237D01*
X311389Y335589D01*
X312037Y335092D01*
X312791Y334780D01*
X313600Y334673D01*
X314409Y334780D01*
X315163Y335092D01*
X315811Y335589D01*
X316308Y336237D01*
X316620Y336991D01*
X316727Y337800D01*
X316620Y338609D01*
X316308Y339363D01*
X315811Y340011D01*
X315231Y340456D01*
Y342979D01*
X325528Y353275D01*
X326979D01*
Y360479D01*
D02*
G37*
G36*
X332380Y335023D02*
X330600D01*
Y331521D01*
X332380D01*
Y335023D01*
D02*
G37*
G36*
X329600D02*
X327820D01*
Y331521D01*
X329600D01*
Y335023D01*
D02*
G37*
G36*
X185000Y334311D02*
X183988Y334178D01*
X183045Y333787D01*
X182235Y333166D01*
X181613Y332355D01*
X181222Y331412D01*
X181089Y330400D01*
X181222Y329388D01*
X181613Y328445D01*
X182235Y327635D01*
X183045Y327013D01*
X183988Y326622D01*
X185000Y326489D01*
X186012Y326622D01*
X186955Y327013D01*
X187766Y327635D01*
X188387Y328445D01*
X188778Y329388D01*
X188911Y330400D01*
X188778Y331412D01*
X188387Y332355D01*
X187766Y333166D01*
X186955Y333787D01*
X186012Y334178D01*
X185000Y334311D01*
D02*
G37*
G36*
X125000D02*
X123988Y334178D01*
X123045Y333787D01*
X122234Y333166D01*
X121613Y332355D01*
X121222Y331412D01*
X121089Y330400D01*
X121222Y329388D01*
X121613Y328445D01*
X122234Y327635D01*
X123045Y327013D01*
X123988Y326622D01*
X125000Y326489D01*
X126012Y326622D01*
X126955Y327013D01*
X127766Y327635D01*
X128387Y328445D01*
X128778Y329388D01*
X128911Y330400D01*
X128778Y331412D01*
X128387Y332355D01*
X127766Y333166D01*
X126955Y333787D01*
X126012Y334178D01*
X125000Y334311D01*
D02*
G37*
G36*
X341980Y339125D02*
X338221D01*
Y331921D01*
X340222D01*
X340380Y331890D01*
X341203D01*
X344847Y328246D01*
X345376Y327893D01*
X346000Y327769D01*
X355944D01*
X356389Y327189D01*
X357037Y326692D01*
X357791Y326380D01*
X358600Y326273D01*
X359409Y326380D01*
X360163Y326692D01*
X360811Y327189D01*
X361308Y327837D01*
X361620Y328591D01*
X361727Y329400D01*
X361620Y330209D01*
X361308Y330963D01*
X360811Y331611D01*
X360163Y332108D01*
X359409Y332420D01*
X358600Y332527D01*
X357791Y332420D01*
X357037Y332108D01*
X356389Y331611D01*
X355944Y331031D01*
X346676D01*
X343033Y334674D01*
X342503Y335028D01*
X341980Y335132D01*
Y339125D01*
D02*
G37*
G36*
X344172Y322369D02*
X341900D01*
Y319900D01*
X344172D01*
Y322369D01*
D02*
G37*
G36*
X185000Y324311D02*
X183988Y324178D01*
X183045Y323787D01*
X182235Y323165D01*
X181613Y322356D01*
X181222Y321412D01*
X181089Y320400D01*
X181222Y319388D01*
X181613Y318444D01*
X182235Y317635D01*
X183045Y317013D01*
X183988Y316622D01*
X185000Y316489D01*
X186012Y316622D01*
X186955Y317013D01*
X187766Y317635D01*
X188387Y318444D01*
X188778Y319388D01*
X188911Y320400D01*
X188778Y321412D01*
X188387Y322356D01*
X187766Y323165D01*
X186955Y323787D01*
X186012Y324178D01*
X185000Y324311D01*
D02*
G37*
G36*
X125000D02*
X123988Y324178D01*
X123045Y323787D01*
X122234Y323165D01*
X121613Y322356D01*
X121222Y321412D01*
X121089Y320400D01*
X121222Y319388D01*
X121613Y318444D01*
X122234Y317635D01*
X123045Y317013D01*
X123988Y316622D01*
X125000Y316489D01*
X126012Y316622D01*
X126955Y317013D01*
X127766Y317635D01*
X128387Y318444D01*
X128778Y319388D01*
X128911Y320400D01*
X128778Y321412D01*
X128387Y322356D01*
X127766Y323165D01*
X126955Y323787D01*
X126012Y324178D01*
X125000Y324311D01*
D02*
G37*
G36*
X344172Y318900D02*
X341900D01*
Y316431D01*
X344172D01*
Y318900D01*
D02*
G37*
G36*
X326979Y339125D02*
X323220D01*
Y331921D01*
X323469D01*
Y312376D01*
X318324Y307231D01*
X317600Y307327D01*
X316791Y307220D01*
X316037Y306908D01*
X315389Y306411D01*
X314892Y305763D01*
X314580Y305009D01*
X314473Y304200D01*
X314580Y303391D01*
X314892Y302637D01*
X315389Y301989D01*
X316037Y301492D01*
X316791Y301180D01*
X317600Y301073D01*
X318409Y301180D01*
X319163Y301492D01*
X319811Y301989D01*
X320308Y302637D01*
X320620Y303391D01*
X320727Y304200D01*
X320631Y304924D01*
X326254Y310546D01*
X326607Y311076D01*
X326731Y311700D01*
Y331921D01*
X326979D01*
Y339125D01*
D02*
G37*
G36*
X185000Y314311D02*
X183988Y314178D01*
X183045Y313787D01*
X182235Y313165D01*
X181613Y312355D01*
X181222Y311412D01*
X181089Y310400D01*
X181222Y309388D01*
X181613Y308444D01*
X182235Y307634D01*
X183045Y307013D01*
X183988Y306622D01*
X185000Y306489D01*
X186012Y306622D01*
X186955Y307013D01*
X187766Y307634D01*
X188387Y308444D01*
X188778Y309388D01*
X188911Y310400D01*
X188778Y311412D01*
X188387Y312355D01*
X187766Y313165D01*
X186955Y313787D01*
X186012Y314178D01*
X185000Y314311D01*
D02*
G37*
G36*
X125000D02*
X123988Y314178D01*
X123045Y313787D01*
X122234Y313165D01*
X121613Y312355D01*
X121222Y311412D01*
X121089Y310400D01*
X121222Y309388D01*
X121613Y308444D01*
X122234Y307634D01*
X123045Y307013D01*
X123988Y306622D01*
X125000Y306489D01*
X126012Y306622D01*
X126955Y307013D01*
X127766Y307634D01*
X128387Y308444D01*
X128778Y309388D01*
X128911Y310400D01*
X128778Y311412D01*
X128387Y312355D01*
X127766Y313165D01*
X126955Y313787D01*
X126012Y314178D01*
X125000Y314311D01*
D02*
G37*
G36*
X333752Y428531D02*
X331677D01*
Y423200D01*
Y417869D01*
X333752D01*
Y417873D01*
X334002Y418269D01*
X335121D01*
Y395831D01*
X333624D01*
X333000Y395707D01*
X332493Y395369D01*
X329853D01*
Y390231D01*
X334596D01*
Y392569D01*
X335121D01*
Y387938D01*
X328606D01*
X327981Y387814D01*
X327452Y387461D01*
X306846Y366855D01*
X306493Y366326D01*
X306369Y365702D01*
Y309856D01*
X305789Y309411D01*
X305292Y308763D01*
X304980Y308009D01*
X304873Y307200D01*
X304980Y306391D01*
X305292Y305637D01*
X305789Y304989D01*
X306437Y304492D01*
X307191Y304180D01*
X308000Y304073D01*
X308809Y304180D01*
X309563Y304492D01*
X310211Y304989D01*
X310708Y305637D01*
X311020Y306391D01*
X311127Y307200D01*
X311020Y308009D01*
X310708Y308763D01*
X310211Y309411D01*
X309631Y309856D01*
Y365026D01*
X329281Y384676D01*
X336201D01*
X336825Y384800D01*
X337354Y385154D01*
X337906Y385705D01*
X338259Y386234D01*
X338383Y386858D01*
Y394200D01*
Y422625D01*
X338352Y422783D01*
Y428131D01*
X334002D01*
X333752Y428527D01*
Y428531D01*
D02*
G37*
G36*
X185000Y304311D02*
X183988Y304178D01*
X183045Y303787D01*
X182235Y303166D01*
X181613Y302356D01*
X181222Y301412D01*
X181089Y300400D01*
X181222Y299388D01*
X181613Y298445D01*
X182235Y297635D01*
X183045Y297013D01*
X183988Y296622D01*
X185000Y296489D01*
X186012Y296622D01*
X186955Y297013D01*
X187766Y297635D01*
X188387Y298445D01*
X188778Y299388D01*
X188911Y300400D01*
X188778Y301412D01*
X188387Y302356D01*
X187766Y303166D01*
X186955Y303787D01*
X186012Y304178D01*
X185000Y304311D01*
D02*
G37*
G36*
X125000D02*
X123988Y304178D01*
X123045Y303787D01*
X122234Y303166D01*
X121613Y302356D01*
X121222Y301412D01*
X121089Y300400D01*
X121222Y299388D01*
X121613Y298445D01*
X122234Y297635D01*
X123045Y297013D01*
X123988Y296622D01*
X125000Y296489D01*
X126012Y296622D01*
X126955Y297013D01*
X127766Y297635D01*
X128387Y298445D01*
X128778Y299388D01*
X128911Y300400D01*
X128778Y301412D01*
X128387Y302356D01*
X127766Y303166D01*
X126955Y303787D01*
X126012Y304178D01*
X125000Y304311D01*
D02*
G37*
G36*
X243736Y390127D02*
X243736Y390127D01*
X162200D01*
X161391Y390020D01*
X160637Y389708D01*
X159989Y389211D01*
X142189Y371411D01*
X141692Y370763D01*
X141380Y370009D01*
X141273Y369200D01*
X141273Y369200D01*
Y271095D01*
X129144Y258966D01*
X128720Y259249D01*
X128778Y259388D01*
X128911Y260400D01*
X128778Y261412D01*
X128387Y262355D01*
X127766Y263165D01*
X126955Y263787D01*
X126012Y264178D01*
X125000Y264311D01*
X123988Y264178D01*
X123045Y263787D01*
X122234Y263165D01*
X121613Y262355D01*
X121222Y261412D01*
X121089Y260400D01*
X121222Y259388D01*
X121613Y258444D01*
X122234Y257634D01*
X123045Y257013D01*
X123988Y256622D01*
X125000Y256489D01*
X126012Y256622D01*
X126151Y256680D01*
X126434Y256256D01*
X124412Y254234D01*
X123988Y254178D01*
X123045Y253787D01*
X122234Y253166D01*
X121613Y252356D01*
X121222Y251412D01*
X121089Y250400D01*
X121222Y249388D01*
X121613Y248445D01*
X122234Y247635D01*
X123045Y247013D01*
X123988Y246622D01*
X125000Y246489D01*
X126012Y246622D01*
X126955Y247013D01*
X127766Y247635D01*
X128387Y248445D01*
X128778Y249388D01*
X128834Y249812D01*
X146611Y267589D01*
X146611Y267589D01*
X147108Y268237D01*
X147420Y268991D01*
X147527Y269800D01*
Y367905D01*
X163495Y383873D01*
X242441D01*
X261473Y364841D01*
Y306115D01*
X261473Y306115D01*
X261580Y305306D01*
X261892Y304551D01*
X262389Y303904D01*
X272304Y293989D01*
X272951Y293492D01*
X273706Y293180D01*
X274515Y293073D01*
X325400D01*
X325400Y293073D01*
X326209Y293180D01*
X326963Y293492D01*
X327611Y293989D01*
X337611Y303989D01*
X337611Y303989D01*
X338108Y304637D01*
X338420Y305391D01*
X338527Y306200D01*
X338527Y306200D01*
Y315974D01*
X338628Y316431D01*
X339027Y316431D01*
X340900D01*
Y319400D01*
Y322369D01*
X338628D01*
Y320714D01*
X338128Y320615D01*
X338108Y320664D01*
X337611Y321312D01*
X337611Y321312D01*
X337472Y321450D01*
Y321969D01*
X336846D01*
X336731Y322056D01*
Y331921D01*
X336980D01*
Y339125D01*
X333221D01*
Y331921D01*
X333469D01*
Y322055D01*
X333356Y321969D01*
X332729D01*
Y321402D01*
X332393Y320963D01*
X332081Y320209D01*
X331974Y319400D01*
X332081Y318591D01*
X332273Y318126D01*
Y307495D01*
X324105Y299327D01*
X275810D01*
X267727Y307410D01*
Y366136D01*
X267727Y366136D01*
X267673Y366540D01*
X267620Y366945D01*
X267308Y367699D01*
X266811Y368347D01*
X245947Y389211D01*
X245299Y389708D01*
X244545Y390020D01*
X243736Y390127D01*
D02*
G37*
G36*
X185000Y294311D02*
X183988Y294178D01*
X183045Y293787D01*
X182235Y293165D01*
X181613Y292355D01*
X181222Y291412D01*
X181089Y290400D01*
X181222Y289388D01*
X181613Y288444D01*
X182235Y287634D01*
X183045Y287013D01*
X183988Y286622D01*
X185000Y286489D01*
X186012Y286622D01*
X186955Y287013D01*
X187766Y287634D01*
X188387Y288444D01*
X188778Y289388D01*
X188911Y290400D01*
X188778Y291412D01*
X188387Y292355D01*
X187766Y293165D01*
X186955Y293787D01*
X186012Y294178D01*
X185000Y294311D01*
D02*
G37*
G36*
X125000D02*
X123988Y294178D01*
X123045Y293787D01*
X122234Y293165D01*
X121613Y292355D01*
X121222Y291412D01*
X121089Y290400D01*
X121222Y289388D01*
X121613Y288444D01*
X122234Y287634D01*
X123045Y287013D01*
X123988Y286622D01*
X125000Y286489D01*
X126012Y286622D01*
X126955Y287013D01*
X127766Y287634D01*
X128387Y288444D01*
X128778Y289388D01*
X128911Y290400D01*
X128778Y291412D01*
X128387Y292355D01*
X127766Y293165D01*
X126955Y293787D01*
X126012Y294178D01*
X125000Y294311D01*
D02*
G37*
G36*
X185000Y284311D02*
X183988Y284178D01*
X183045Y283787D01*
X182235Y283166D01*
X181613Y282355D01*
X181222Y281412D01*
X181089Y280400D01*
X181222Y279388D01*
X181613Y278445D01*
X182235Y277635D01*
X183045Y277013D01*
X183988Y276622D01*
X185000Y276489D01*
X186012Y276622D01*
X186955Y277013D01*
X187766Y277635D01*
X188387Y278445D01*
X188778Y279388D01*
X188911Y280400D01*
X188778Y281412D01*
X188387Y282355D01*
X187766Y283166D01*
X186955Y283787D01*
X186012Y284178D01*
X185000Y284311D01*
D02*
G37*
G36*
X125000D02*
X123988Y284178D01*
X123045Y283787D01*
X122234Y283166D01*
X121613Y282355D01*
X121222Y281412D01*
X121089Y280400D01*
X121222Y279388D01*
X121613Y278445D01*
X122234Y277635D01*
X123045Y277013D01*
X123988Y276622D01*
X125000Y276489D01*
X126012Y276622D01*
X126955Y277013D01*
X127766Y277635D01*
X128387Y278445D01*
X128778Y279388D01*
X128911Y280400D01*
X128778Y281412D01*
X128387Y282355D01*
X127766Y283166D01*
X126955Y283787D01*
X126012Y284178D01*
X125000Y284311D01*
D02*
G37*
G36*
X185000Y274311D02*
X183988Y274178D01*
X183045Y273787D01*
X182235Y273165D01*
X181613Y272356D01*
X181222Y271412D01*
X181089Y270400D01*
X181222Y269388D01*
X181613Y268444D01*
X182235Y267635D01*
X183045Y267013D01*
X183988Y266622D01*
X185000Y266489D01*
X186012Y266622D01*
X186955Y267013D01*
X187766Y267635D01*
X188387Y268444D01*
X188778Y269388D01*
X188911Y270400D01*
X188778Y271412D01*
X188387Y272356D01*
X187766Y273165D01*
X186955Y273787D01*
X186012Y274178D01*
X185000Y274311D01*
D02*
G37*
G36*
X125000D02*
X123988Y274178D01*
X123045Y273787D01*
X122234Y273165D01*
X121613Y272356D01*
X121222Y271412D01*
X121089Y270400D01*
X121222Y269388D01*
X121613Y268444D01*
X122234Y267635D01*
X123045Y267013D01*
X123988Y266622D01*
X125000Y266489D01*
X126012Y266622D01*
X126955Y267013D01*
X127766Y267635D01*
X128387Y268444D01*
X128778Y269388D01*
X128911Y270400D01*
X128778Y271412D01*
X128387Y272356D01*
X127766Y273165D01*
X126955Y273787D01*
X126012Y274178D01*
X125000Y274311D01*
D02*
G37*
G36*
X185000Y264311D02*
X183988Y264178D01*
X183045Y263787D01*
X182235Y263165D01*
X181613Y262355D01*
X181222Y261412D01*
X181089Y260400D01*
X181222Y259388D01*
X181613Y258444D01*
X182235Y257634D01*
X183045Y257013D01*
X183988Y256622D01*
X185000Y256489D01*
X186012Y256622D01*
X186955Y257013D01*
X187766Y257634D01*
X188387Y258444D01*
X188778Y259388D01*
X188911Y260400D01*
X188778Y261412D01*
X188387Y262355D01*
X187766Y263165D01*
X186955Y263787D01*
X186012Y264178D01*
X185000Y264311D01*
D02*
G37*
G36*
Y254311D02*
X183988Y254178D01*
X183045Y253787D01*
X182235Y253166D01*
X181613Y252356D01*
X181222Y251412D01*
X181089Y250400D01*
X181222Y249388D01*
X181613Y248445D01*
X182235Y247635D01*
X183045Y247013D01*
X183988Y246622D01*
X185000Y246489D01*
X186012Y246622D01*
X186955Y247013D01*
X187766Y247635D01*
X188387Y248445D01*
X188778Y249388D01*
X188911Y250400D01*
X188778Y251412D01*
X188387Y252356D01*
X187766Y253166D01*
X186955Y253787D01*
X186012Y254178D01*
X185000Y254311D01*
D02*
G37*
G36*
X362550Y243630D02*
Y238049D01*
X368130D01*
X368062Y238745D01*
X367713Y239895D01*
X367146Y240955D01*
X366384Y241883D01*
X365455Y242646D01*
X364396Y243212D01*
X363246Y243561D01*
X362550Y243630D01*
D02*
G37*
G36*
X239600D02*
Y238049D01*
X245180D01*
X245112Y238745D01*
X244763Y239895D01*
X244197Y240955D01*
X243434Y241883D01*
X242505Y242646D01*
X241446Y243212D01*
X240296Y243561D01*
X239600Y243630D01*
D02*
G37*
G36*
X361550D02*
X360854Y243561D01*
X359704Y243212D01*
X358645Y242646D01*
X357716Y241883D01*
X356954Y240955D01*
X356387Y239895D01*
X356038Y238745D01*
X355970Y238049D01*
X361550D01*
Y243630D01*
D02*
G37*
G36*
X238600D02*
X237904Y243561D01*
X236754Y243212D01*
X235695Y242646D01*
X234766Y241883D01*
X234003Y240955D01*
X233437Y239895D01*
X233088Y238745D01*
X233020Y238049D01*
X238600D01*
Y243630D01*
D02*
G37*
G36*
X185000Y244311D02*
X183988Y244178D01*
X183045Y243787D01*
X182235Y243165D01*
X181613Y242355D01*
X181222Y241412D01*
X181089Y240400D01*
X181222Y239388D01*
X181613Y238444D01*
X182235Y237634D01*
X183045Y237013D01*
X183988Y236622D01*
X185000Y236489D01*
X186012Y236622D01*
X186955Y237013D01*
X187766Y237634D01*
X188387Y238444D01*
X188778Y239388D01*
X188911Y240400D01*
X188778Y241412D01*
X188387Y242355D01*
X187766Y243165D01*
X186955Y243787D01*
X186012Y244178D01*
X185000Y244311D01*
D02*
G37*
G36*
X125000D02*
X123988Y244178D01*
X123045Y243787D01*
X122234Y243165D01*
X121613Y242355D01*
X121222Y241412D01*
X121089Y240400D01*
X121222Y239388D01*
X121613Y238444D01*
X122234Y237634D01*
X123045Y237013D01*
X123988Y236622D01*
X125000Y236489D01*
X126012Y236622D01*
X126955Y237013D01*
X127766Y237634D01*
X128387Y238444D01*
X128778Y239388D01*
X128911Y240400D01*
X128778Y241412D01*
X128387Y242355D01*
X127766Y243165D01*
X126955Y243787D01*
X126012Y244178D01*
X125000Y244311D01*
D02*
G37*
G36*
X397950Y243298D02*
X396462Y243103D01*
X395075Y242528D01*
X393885Y241615D01*
X392971Y240424D01*
X392397Y239037D01*
X392201Y237549D01*
X392397Y236061D01*
X392971Y234675D01*
X393885Y233484D01*
X395075Y232570D01*
X396462Y231996D01*
X397950Y231800D01*
X399438Y231996D01*
X400825Y232570D01*
X402015Y233484D01*
X402929Y234675D01*
X403503Y236061D01*
X403699Y237549D01*
X403503Y239037D01*
X402929Y240424D01*
X402015Y241615D01*
X400825Y242528D01*
X399438Y243103D01*
X397950Y243298D01*
D02*
G37*
G36*
X245180Y237049D02*
X239600D01*
Y231469D01*
X240296Y231537D01*
X241446Y231886D01*
X242505Y232453D01*
X243434Y233215D01*
X244197Y234144D01*
X244763Y235204D01*
X245112Y236353D01*
X245180Y237049D01*
D02*
G37*
G36*
X368130D02*
X362550D01*
Y231469D01*
X363246Y231537D01*
X364396Y231886D01*
X365455Y232453D01*
X366384Y233215D01*
X367146Y234144D01*
X367713Y235204D01*
X368062Y236353D01*
X368130Y237049D01*
D02*
G37*
G36*
X361550D02*
X355970D01*
X356038Y236353D01*
X356387Y235204D01*
X356954Y234144D01*
X357716Y233215D01*
X358645Y232453D01*
X359704Y231886D01*
X360854Y231537D01*
X361550Y231469D01*
Y237049D01*
D02*
G37*
G36*
X238600D02*
X233020D01*
X233088Y236353D01*
X233437Y235204D01*
X234003Y234144D01*
X234766Y233215D01*
X235695Y232453D01*
X236754Y231886D01*
X237904Y231537D01*
X238600Y231469D01*
Y237049D01*
D02*
G37*
G36*
X125500Y234649D02*
Y230900D01*
X129249D01*
X129167Y231517D01*
X128736Y232557D01*
X128051Y233451D01*
X127157Y234136D01*
X126117Y234567D01*
X125500Y234649D01*
D02*
G37*
G36*
X124500D02*
X123883Y234567D01*
X122843Y234136D01*
X121949Y233451D01*
X121264Y232557D01*
X120833Y231517D01*
X120751Y230900D01*
X124500D01*
Y234649D01*
D02*
G37*
G36*
X185000Y234311D02*
X183988Y234178D01*
X183045Y233787D01*
X182235Y233166D01*
X181613Y232355D01*
X181222Y231412D01*
X181089Y230400D01*
X181222Y229388D01*
X181613Y228445D01*
X182235Y227635D01*
X183045Y227013D01*
X183988Y226622D01*
X185000Y226489D01*
X186012Y226622D01*
X186955Y227013D01*
X187766Y227635D01*
X188387Y228445D01*
X188778Y229388D01*
X188911Y230400D01*
X188778Y231412D01*
X188387Y232355D01*
X187766Y233166D01*
X186955Y233787D01*
X186012Y234178D01*
X185000Y234311D01*
D02*
G37*
G36*
X124500Y229900D02*
X120751D01*
X120833Y229283D01*
X121264Y228243D01*
X121949Y227349D01*
X122843Y226664D01*
X123883Y226233D01*
X124500Y226151D01*
Y229900D01*
D02*
G37*
G36*
X421000Y233792D02*
X419708Y233622D01*
X418504Y233123D01*
X417470Y232330D01*
X416676Y231295D01*
X416177Y230091D01*
X416007Y228799D01*
X416177Y227507D01*
X416676Y226303D01*
X417470Y225269D01*
X418504Y224475D01*
X419708Y223977D01*
X421000Y223807D01*
X422292Y223977D01*
X423496Y224475D01*
X424530Y225269D01*
X425324Y226303D01*
X425823Y227507D01*
X425993Y228799D01*
X425823Y230091D01*
X425324Y231295D01*
X424530Y232330D01*
X423496Y233123D01*
X422292Y233622D01*
X421000Y233792D01*
D02*
G37*
G36*
X339000D02*
X337708Y233622D01*
X336504Y233123D01*
X335470Y232330D01*
X334676Y231295D01*
X334177Y230091D01*
X334007Y228799D01*
X334177Y227507D01*
X334676Y226303D01*
X335470Y225269D01*
X336504Y224475D01*
X337708Y223977D01*
X339000Y223807D01*
X340292Y223977D01*
X341496Y224475D01*
X342530Y225269D01*
X343324Y226303D01*
X343823Y227507D01*
X343993Y228799D01*
X343823Y230091D01*
X343324Y231295D01*
X342530Y232330D01*
X341496Y233123D01*
X340292Y233622D01*
X339000Y233792D01*
D02*
G37*
G36*
X216050D02*
X214758Y233622D01*
X213554Y233123D01*
X212520Y232330D01*
X211726Y231295D01*
X211227Y230091D01*
X211057Y228799D01*
X211227Y227507D01*
X211726Y226303D01*
X212520Y225269D01*
X213554Y224475D01*
X214758Y223977D01*
X216050Y223807D01*
X217342Y223977D01*
X218546Y224475D01*
X219580Y225269D01*
X220374Y226303D01*
X220873Y227507D01*
X221043Y228799D01*
X220873Y230091D01*
X220374Y231295D01*
X219580Y232330D01*
X218546Y233123D01*
X217342Y233622D01*
X216050Y233792D01*
D02*
G37*
G36*
X188878Y224278D02*
X181122D01*
Y216522D01*
X188878D01*
Y224278D01*
D02*
G37*
G36*
X239100Y225798D02*
X237612Y225603D01*
X236225Y225028D01*
X235035Y224114D01*
X234121Y222924D01*
X233547Y221537D01*
X233351Y220049D01*
X233547Y218561D01*
X234121Y217175D01*
X235035Y215984D01*
X236225Y215070D01*
X237612Y214496D01*
X239100Y214300D01*
X240588Y214496D01*
X241975Y215070D01*
X243165Y215984D01*
X244079Y217175D01*
X244653Y218561D01*
X244849Y220049D01*
X244653Y221537D01*
X244079Y222924D01*
X243165Y224114D01*
X241975Y225028D01*
X240588Y225603D01*
X239100Y225798D01*
D02*
G37*
G36*
X185000Y215919D02*
X183572Y215731D01*
X182240Y215180D01*
X181097Y214303D01*
X180220Y213160D01*
X179669Y211828D01*
X179481Y210400D01*
X179669Y208972D01*
X180220Y207640D01*
X181097Y206497D01*
X182240Y205620D01*
X183572Y205069D01*
X185000Y204881D01*
X186428Y205069D01*
X187760Y205620D01*
X188903Y206497D01*
X189780Y207640D01*
X190331Y208972D01*
X190519Y210400D01*
X190331Y211828D01*
X189780Y213160D01*
X188903Y214303D01*
X187760Y215180D01*
X186428Y215731D01*
X185000Y215919D01*
D02*
G37*
G36*
X125000D02*
X123572Y215731D01*
X122240Y215180D01*
X121097Y214303D01*
X120220Y213160D01*
X119669Y211828D01*
X119481Y210400D01*
X119669Y208972D01*
X120220Y207640D01*
X121097Y206497D01*
X122240Y205620D01*
X123572Y205069D01*
X125000Y204881D01*
X126428Y205069D01*
X127760Y205620D01*
X128903Y206497D01*
X129780Y207640D01*
X130331Y208972D01*
X130519Y210400D01*
X130331Y211828D01*
X129780Y213160D01*
X128903Y214303D01*
X127760Y215180D01*
X126428Y215731D01*
X125000Y215919D01*
D02*
G37*
%LPD*%
D10*
X377082Y386707D02*
X378200Y385589D01*
Y311600D02*
Y385589D01*
X340100Y356877D02*
Y357120D01*
X340380Y357400D01*
X356101D01*
X335100Y319400D02*
Y335523D01*
Y356877D02*
Y372500D01*
X335600Y373000D01*
X370665Y392800D02*
X371065Y392400D01*
X365750Y392800D02*
X370665D01*
X336752Y394200D02*
Y422625D01*
Y386858D02*
Y394200D01*
X333624D02*
X336752D01*
X333193Y393769D02*
X333624Y394200D01*
X332996Y393769D02*
X333193D01*
X332224Y392997D02*
X332996Y393769D01*
X332224Y392800D02*
Y392997D01*
X299471Y392000D02*
X304200D01*
X298699Y392772D02*
X299471Y392000D01*
X298699Y392772D02*
Y392800D01*
X336201Y386307D02*
X336752Y386858D01*
X304200Y318800D02*
Y392000D01*
X289000Y303600D02*
X304200Y318800D01*
X325100Y311700D02*
Y335300D01*
X317600Y304200D02*
X325100Y311700D01*
X308000Y365702D02*
X328606Y386307D01*
X308000Y307200D02*
Y365702D01*
X371065Y392400D02*
Y417534D01*
X372328Y386707D02*
X377082D01*
X371065Y387971D02*
X372328Y386707D01*
X371065Y387971D02*
Y392400D01*
X304200Y392000D02*
Y423200D01*
Y392000D02*
X304200Y392000D01*
X336177Y423200D02*
X336752Y422625D01*
X368154Y420444D02*
Y423200D01*
Y420444D02*
X371065Y417534D01*
X328606Y386307D02*
X336201D01*
X341879Y333521D02*
X346000Y329400D01*
X340380Y333521D02*
X341879D01*
X340200Y333700D02*
X340380Y333521D01*
X340200Y333700D02*
Y335200D01*
X346000Y329400D02*
X358600D01*
X330350Y379950D02*
X330600Y380200D01*
X330350Y357127D02*
Y379950D01*
X330100Y356877D02*
X330350Y357127D01*
X313600Y337800D02*
Y343655D01*
X325100Y355155D01*
Y356877D01*
D16*
Y335523D02*
D03*
X330100D02*
D03*
X335100D02*
D03*
X340100D02*
D03*
Y356877D02*
D03*
X335100D02*
D03*
X330100D02*
D03*
X325100D02*
D03*
D17*
X140800Y459600D02*
D03*
X160091D02*
D03*
X140800Y428143D02*
D03*
X160091D02*
D03*
X206491Y427943D02*
D03*
X187200D02*
D03*
X206491Y459400D02*
D03*
X187200D02*
D03*
X257000Y427800D02*
D03*
X237709D02*
D03*
X257000Y459257D02*
D03*
X237709D02*
D03*
D18*
X150446Y419128D02*
D03*
Y468616D02*
D03*
X196846Y468416D02*
D03*
Y418928D02*
D03*
X247354Y468272D02*
D03*
Y418784D02*
D03*
D19*
X289200Y423200D02*
D03*
X294200D02*
D03*
X299200D02*
D03*
X304200D02*
D03*
X289200Y444853D02*
D03*
X304200D02*
D03*
X299200D02*
D03*
X294200D02*
D03*
X321177Y423200D02*
D03*
X326177D02*
D03*
X331177D02*
D03*
X336177D02*
D03*
X321177Y444853D02*
D03*
X336177D02*
D03*
X331177D02*
D03*
X326177D02*
D03*
X353154Y423200D02*
D03*
X358154D02*
D03*
X363154D02*
D03*
X368154D02*
D03*
X353154Y444853D02*
D03*
X368154D02*
D03*
X363154D02*
D03*
X358154D02*
D03*
D20*
X359450Y392800D02*
D03*
X365750D02*
D03*
X292400D02*
D03*
X298699D02*
D03*
X325925D02*
D03*
X332224D02*
D03*
X341400Y319400D02*
D03*
X335101D02*
D03*
X362400Y357400D02*
D03*
X356101D02*
D03*
D30*
X362050Y237549D02*
D03*
X397950D02*
D03*
X362050Y220049D02*
D03*
X397950D02*
D03*
X239100Y237549D02*
D03*
X275000D02*
D03*
X239100Y220049D02*
D03*
X275000D02*
D03*
X262700Y501400D02*
D03*
X284200D02*
D03*
X372500Y502500D02*
D03*
X394000D02*
D03*
X155050Y503000D02*
D03*
X176550D02*
D03*
D33*
X331177Y444853D02*
X336177D01*
X332562Y446238D02*
Y456238D01*
X331177Y444853D02*
X332562Y446238D01*
X294200Y444853D02*
X303000Y453653D01*
X294200Y444853D02*
X299200D01*
X289200D02*
X294200D01*
X282200Y486600D02*
X303000Y465800D01*
X192950Y486600D02*
X282200D01*
X176550Y503000D02*
X192950Y486600D01*
X382101Y204200D02*
X397950Y220049D01*
X308012Y204200D02*
X382101D01*
X292163Y220049D02*
X308012Y204200D01*
X353554Y423600D02*
X360400D01*
X287400Y501400D02*
X332562Y456238D01*
X284200Y501400D02*
X287400D01*
X303000Y453653D02*
Y465800D01*
X275000Y220049D02*
X292163D01*
X196400Y402400D02*
Y418482D01*
X196846Y418928D01*
X255583Y427800D02*
X257000D01*
X247354Y419572D02*
X255583Y427800D01*
X247354Y418784D02*
Y419572D01*
X245200Y404800D02*
Y416630D01*
X247354Y418784D01*
X239126Y427800D02*
X247354Y419572D01*
X237709Y427800D02*
X239126D01*
X196846Y418928D02*
Y419715D01*
X205074Y427943D01*
X206491D01*
X188617D02*
X196846Y419715D01*
X187200Y427943D02*
X188617D01*
X158674Y428143D02*
X160091D01*
X150446Y419915D02*
X158674Y428143D01*
X150446Y419128D02*
Y419915D01*
X142217Y428143D02*
X150446Y419915D01*
X140800Y428143D02*
X142217D01*
X151400Y402200D02*
Y418173D01*
X150446Y419128D02*
X151400Y418173D01*
X368154Y444853D02*
Y476654D01*
X394000Y502500D01*
X363154Y444853D02*
X368154D01*
X358154D02*
X363154D01*
X353154D02*
X358154D01*
X326177D02*
X331177D01*
X321177D02*
X326177D01*
X299200D02*
X304200D01*
X294200Y423200D02*
X296400D01*
X289200D02*
X294200D01*
X326177D02*
X328602D01*
X321177D02*
X326177D01*
X288800D02*
X289200D01*
D34*
X205400Y226000D02*
Y367400D01*
X194028Y378772D02*
X205400Y367400D01*
X169772Y378772D02*
X194028D01*
X153416Y362416D02*
X169772Y378772D01*
X153416Y248816D02*
Y362416D01*
X162200Y387000D02*
X243736D01*
X144400Y369200D02*
X162200Y387000D01*
X144400Y269800D02*
Y369200D01*
X345600Y365000D02*
X349400D01*
X340602Y360002D02*
X345600Y365000D01*
X325400Y296200D02*
X335400Y306200D01*
X274515Y296200D02*
X325400D01*
X264600Y306115D02*
X274515Y296200D01*
X335400Y306200D02*
Y319101D01*
X335101Y319400D02*
X335400Y319101D01*
X340602Y357600D02*
Y360002D01*
X243736Y387000D02*
X264600Y366136D01*
X125000Y250400D02*
X144400Y269800D01*
X227729Y203671D02*
X241122D01*
X275000Y237549D01*
X205400Y226000D02*
X227729Y203671D01*
X274088Y237549D02*
X275000D01*
X384400Y233599D02*
X397950Y220049D01*
X384400Y233599D02*
Y252200D01*
X398400Y266200D01*
Y303200D01*
X388400Y265200D02*
Y303200D01*
X378200Y255000D02*
X388400Y265200D01*
X378200Y236199D02*
Y255000D01*
X362050Y220049D02*
X378200Y236199D01*
X125000Y220400D02*
X153416Y248816D01*
X264600Y306115D02*
Y366136D01*
D35*
X356200Y421400D02*
D03*
D36*
X323200Y421600D02*
D03*
D37*
X290700Y422700D02*
D03*
D38*
X360965Y238300D02*
D03*
D39*
X238300Y238100D02*
D03*
D40*
X203400Y460600D02*
D03*
D41*
X125000Y360400D02*
D03*
X185000Y220400D02*
D03*
D42*
X125000Y350400D02*
D03*
Y340400D02*
D03*
Y330400D02*
D03*
Y320400D02*
D03*
Y310400D02*
D03*
Y300400D02*
D03*
Y290400D02*
D03*
Y280400D02*
D03*
Y270400D02*
D03*
Y260400D02*
D03*
Y250400D02*
D03*
Y240400D02*
D03*
Y230400D02*
D03*
Y220400D02*
D03*
X185000Y230400D02*
D03*
Y240400D02*
D03*
Y250400D02*
D03*
Y260400D02*
D03*
Y270400D02*
D03*
Y280400D02*
D03*
Y290400D02*
D03*
Y300400D02*
D03*
Y310400D02*
D03*
Y320400D02*
D03*
Y330400D02*
D03*
Y340400D02*
D03*
Y350400D02*
D03*
Y360400D02*
D03*
D43*
X125000Y370400D02*
D03*
X185000D02*
D03*
Y210400D02*
D03*
X125000D02*
D03*
D44*
X339000Y228799D02*
D03*
X421000D02*
D03*
X216050D02*
D03*
X298050D02*
D03*
X307250Y501400D02*
D03*
X239650D02*
D03*
X417050Y502500D02*
D03*
X349450D02*
D03*
X199600Y503000D02*
D03*
X132000D02*
D03*
D45*
X398400Y303200D02*
D03*
D46*
X388400D02*
D03*
D47*
X349400Y365000D02*
D03*
X275200Y456000D02*
D03*
X274400Y466800D02*
D03*
X221800D02*
D03*
X222000Y455400D02*
D03*
X173600D02*
D03*
X173400Y466400D02*
D03*
X317600Y304200D02*
D03*
X289000Y303600D02*
D03*
X196400Y402400D02*
D03*
X245200Y404800D02*
D03*
X151400Y402200D02*
D03*
X308000Y307200D02*
D03*
X378200Y311600D02*
D03*
X358600Y329400D02*
D03*
X335600Y373000D02*
D03*
X330600Y380200D02*
D03*
X313600Y337800D02*
D03*
M02*
