M48
;Layer_Color=9474304
;FILE_FORMAT=2:5
INCH,LZ
;TYPE=PLATED
T1F00S00C0.02800
T2F00S00C0.04134
T3F00S00C0.04370
T4F00S00C0.06496
T5F00S00C0.07200
T6F00S00C0.08700
%
T01
X03176Y03042
X03782Y03116
X0308Y03072
X0289Y03036
X01514Y04022
X01964Y04024
X02452Y04048
X0222Y04554
X02218Y04668
X01734Y04664
X01736Y04554
X02752Y0456
X02744Y04668
X03306Y03802
X03356Y0373
X03494Y0365
X03586Y03294
X03136Y03378
T02
X03884Y03032
X03984
T03
X0185Y02204
Y02304
Y02404
Y02504
Y02604
Y02704
Y02804
Y02904
Y03004
Y03104
X0125
Y03004
Y02904
Y02804
Y02704
Y02604
Y02504
Y02404
Y02304
Y02204
Y03204
Y03304
Y03404
Y03504
Y03604
X0185
Y03504
Y03404
Y03304
Y03204
T04
X0185Y02104
X0125
Y03704
X0185
T05
X036205Y0220049
Y0237549
X039795
Y0220049
X0275
Y0237549
X02391
Y0220049
X03725Y05025
X0394
X02842Y05014
X02627
X017655Y0503
X015505
T06
X0339Y0228799
X0421
X029805
X021605
X034945Y05025
X041705
X030725Y05014
X023965
X01996Y0503
X0132
M30
