G04*
G04 #@! TF.GenerationSoftware,Altium Limited,Altium Designer,19.1.7 (138)*
G04*
G04 Layer_Color=65535*
%FSLAX25Y25*%
%MOIN*%
G70*
G01*
G75*
%ADD10C,0.02000*%
%ADD11C,0.00787*%
%ADD12C,0.00394*%
%ADD13C,0.00600*%
%ADD14C,0.03937*%
%ADD15C,0.01000*%
D10*
X438000Y220049D02*
G03*
X438000Y220049I-1500J0D01*
G01*
X315050D02*
G03*
X315050Y220049I-1500J0D01*
G01*
X324250Y501400D02*
G03*
X324250Y501400I-1500J0D01*
G01*
X434050Y502500D02*
G03*
X434050Y502500I-1500J0D01*
G01*
X216600Y503000D02*
G03*
X216600Y503000I-1500J0D01*
G01*
D11*
X322954Y339901D02*
Y352499D01*
X342246D01*
Y339901D02*
Y352499D01*
X322954Y339901D02*
X342246D01*
X322443Y332519D02*
Y338523D01*
X362403Y391225D02*
X362797D01*
X362403Y394375D02*
X362797D01*
X295353Y391225D02*
X295746D01*
X295353Y394375D02*
X295746D01*
X328878Y391225D02*
X329272D01*
X328878Y394375D02*
X329272D01*
X338053Y317825D02*
X338447D01*
X338053Y320975D02*
X338447D01*
X359053Y355825D02*
X359447D01*
X359053Y358975D02*
X359447D01*
X383695Y315700D02*
X398400D01*
X383695Y290700D02*
Y315700D01*
Y290700D02*
X403105D01*
Y303200D01*
D12*
X131378Y375400D02*
X178622D01*
X131378Y205400D02*
X178622D01*
X190000Y215597D02*
Y365203D01*
X120000Y215597D02*
Y365203D01*
X287231Y451192D02*
X305834Y451192D01*
X302389Y417039D02*
X306031D01*
X287527D02*
X301011D01*
X319209Y451192D02*
X337811Y451192D01*
X334366Y417039D02*
X338008D01*
X319504D02*
X332988D01*
X351186Y451192D02*
X369788Y451192D01*
X366343Y417039D02*
X369985D01*
X351481D02*
X364965D01*
X295893Y455030D02*
Y453062D01*
X296877D01*
X297205Y453390D01*
Y454702D01*
X296877Y455030D01*
X295893D01*
X304784Y415037D02*
X304456Y415365D01*
X303800D01*
X303472Y415037D01*
Y413725D01*
X303800Y413397D01*
X304456D01*
X304784Y413725D01*
Y414381D01*
X304128D01*
X294744Y414840D02*
X294416Y415168D01*
X293760D01*
X293432Y414840D01*
Y414512D01*
X293760Y414184D01*
X294416D01*
X294744Y413856D01*
Y413528D01*
X294416Y413200D01*
X293760D01*
X293432Y413528D01*
X327870Y455030D02*
Y453062D01*
X328854D01*
X329182Y453390D01*
Y454702D01*
X328854Y455030D01*
X327870D01*
X336761Y415037D02*
X336433Y415365D01*
X335777D01*
X335449Y415037D01*
Y413725D01*
X335777Y413397D01*
X336433D01*
X336761Y413725D01*
Y414381D01*
X336105D01*
X326721Y414840D02*
X326393Y415168D01*
X325737D01*
X325409Y414840D01*
Y414512D01*
X325737Y414184D01*
X326393D01*
X326721Y413856D01*
Y413528D01*
X326393Y413200D01*
X325737D01*
X325409Y413528D01*
X359847Y455030D02*
Y453062D01*
X360831D01*
X361159Y453390D01*
Y454702D01*
X360831Y455030D01*
X359847D01*
X368738Y415037D02*
X368410Y415365D01*
X367754D01*
X367426Y415037D01*
Y413725D01*
X367754Y413397D01*
X368410D01*
X368738Y413725D01*
Y414381D01*
X368082D01*
X358699Y414840D02*
X358370Y415168D01*
X357715D01*
X357387Y414840D01*
Y414512D01*
X357715Y414184D01*
X358370D01*
X358699Y413856D01*
Y413528D01*
X358370Y413200D01*
X357715D01*
X357387Y413528D01*
D13*
X434000Y118499D02*
Y251299D01*
X326000Y118499D02*
X434000D01*
X326000D02*
Y251299D01*
X434000D01*
X311050Y118499D02*
Y251299D01*
X203050Y118499D02*
X311050D01*
X203050D02*
Y251299D01*
X311050D01*
X226650Y482900D02*
Y603000D01*
X320250D01*
Y482900D02*
Y603000D01*
X226650Y482900D02*
X320250D01*
X336450Y484000D02*
Y604100D01*
X430050D01*
Y484000D02*
Y604100D01*
X336450Y484000D02*
X430050D01*
X119000Y484500D02*
Y604600D01*
X212600D01*
Y484500D02*
Y604600D01*
X119000Y484500D02*
X212600D01*
D14*
X283491Y426192D02*
Y426291D01*
X315469Y426192D02*
Y426291D01*
X347446Y426192D02*
Y426291D01*
D15*
X300199Y264847D02*
X298199D01*
X299199D01*
Y259849D01*
X298199Y258849D01*
X297200D01*
X296200Y259849D01*
X306197Y264847D02*
X304197Y263848D01*
X302198Y261848D01*
Y259849D01*
X303198Y258849D01*
X305197D01*
X306197Y259849D01*
Y260848D01*
X305197Y261848D01*
X302198D01*
X426149Y264347D02*
X424149D01*
X425149D01*
Y259349D01*
X424149Y258349D01*
X423150D01*
X422150Y259349D01*
X432147Y258349D02*
X428148D01*
X432147Y262348D01*
Y263348D01*
X431147Y264347D01*
X429148D01*
X428148Y263348D01*
X257799Y407398D02*
X253800D01*
Y404399D01*
X255799D01*
X253800D01*
Y401400D01*
X259798Y406398D02*
X260798Y407398D01*
X262797D01*
X263797Y406398D01*
Y405399D01*
X262797Y404399D01*
X261797D01*
X262797D01*
X263797Y403399D01*
Y402400D01*
X262797Y401400D01*
X260798D01*
X259798Y402400D01*
X208399Y405198D02*
X204400D01*
Y402199D01*
X206399D01*
X204400D01*
Y399200D01*
X214397D02*
X210398D01*
X214397Y403199D01*
Y404198D01*
X213397Y405198D01*
X211398D01*
X210398Y404198D01*
X164799Y405798D02*
X160800D01*
Y402799D01*
X162799D01*
X160800D01*
Y399800D01*
X166798D02*
X168797D01*
X167798D01*
Y405798D01*
X166798Y404798D01*
X127149Y479598D02*
X125149D01*
X126149D01*
Y474600D01*
X125149Y473600D01*
X124150D01*
X123150Y474600D01*
X129148Y478598D02*
X130148Y479598D01*
X132147D01*
X133147Y478598D01*
Y477599D01*
X132147Y476599D01*
X131147D01*
X132147D01*
X133147Y475599D01*
Y474600D01*
X132147Y473600D01*
X130148D01*
X129148Y474600D01*
X370999Y359998D02*
X369999Y360998D01*
X368000D01*
X367000Y359998D01*
Y356000D01*
X368000Y355000D01*
X369999D01*
X370999Y356000D01*
X376997Y355000D02*
X372998D01*
X376997Y358999D01*
Y359998D01*
X375997Y360998D01*
X373998D01*
X372998Y359998D01*
X350900Y322198D02*
X349900Y323198D01*
X347901D01*
X346901Y322198D01*
Y318200D01*
X347901Y317200D01*
X349900D01*
X350900Y318200D01*
X352899Y317200D02*
X354898D01*
X353899D01*
Y323198D01*
X352899Y322198D01*
X339999Y479998D02*
X337999D01*
X338999D01*
Y475000D01*
X337999Y474000D01*
X337000D01*
X336000Y475000D01*
X345997Y479998D02*
X341998D01*
Y476999D01*
X343997Y477999D01*
X344997D01*
X345997Y476999D01*
Y475000D01*
X344997Y474000D01*
X342998D01*
X341998Y475000D01*
X230199Y478898D02*
X228199D01*
X229199D01*
Y473900D01*
X228199Y472900D01*
X227200D01*
X226200Y473900D01*
X235197Y472900D02*
Y478898D01*
X232198Y475899D01*
X236197D01*
X387599Y325798D02*
X385599D01*
X386599D01*
Y320800D01*
X385599Y319800D01*
X384600D01*
X383600Y320800D01*
X389598Y319800D02*
X391597D01*
X390598D01*
Y325798D01*
X389598Y324798D01*
X334975Y398400D02*
Y404398D01*
X337974D01*
X338973Y403398D01*
Y401399D01*
X337974Y400399D01*
X334975D01*
X336974D02*
X338973Y398400D01*
X344972D02*
X340973D01*
X344972Y402399D01*
Y403398D01*
X343972Y404398D01*
X341972D01*
X340973Y403398D01*
X301200Y399200D02*
Y405198D01*
X304199D01*
X305199Y404198D01*
Y402199D01*
X304199Y401199D01*
X301200D01*
X303199D02*
X305199Y399200D01*
X307198D02*
X309197D01*
X308198D01*
Y405198D01*
X307198Y404198D01*
X368600Y399000D02*
Y404998D01*
X371599D01*
X372599Y403998D01*
Y401999D01*
X371599Y400999D01*
X368600D01*
X370599D02*
X372599Y399000D01*
X374598Y403998D02*
X375598Y404998D01*
X377597D01*
X378597Y403998D01*
Y402999D01*
X377597Y401999D01*
X376597D01*
X377597D01*
X378597Y400999D01*
Y400000D01*
X377597Y399000D01*
X375598D01*
X374598Y400000D01*
X350453Y459400D02*
Y463398D01*
X349453Y464398D01*
X347454D01*
X346454Y463398D01*
Y459400D01*
X347454Y458400D01*
X349453D01*
X348454Y460399D02*
X350453Y458400D01*
X349453D02*
X350453Y459400D01*
X352452Y463398D02*
X353452Y464398D01*
X355451D01*
X356451Y463398D01*
Y462399D01*
X355451Y461399D01*
X354452D01*
X355451D01*
X356451Y460399D01*
Y459400D01*
X355451Y458400D01*
X353452D01*
X352452Y459400D01*
X318476D02*
Y463398D01*
X317476Y464398D01*
X315477D01*
X314477Y463398D01*
Y459400D01*
X315477Y458400D01*
X317476D01*
X316476Y460399D02*
X318476Y458400D01*
X317476D02*
X318476Y459400D01*
X324474Y458400D02*
X320475D01*
X324474Y462399D01*
Y463398D01*
X323474Y464398D01*
X321475D01*
X320475Y463398D01*
X286499Y459400D02*
Y463398D01*
X285499Y464398D01*
X283500D01*
X282500Y463398D01*
Y459400D01*
X283500Y458400D01*
X285499D01*
X284499Y460399D02*
X286499Y458400D01*
X285499D02*
X286499Y459400D01*
X288498Y458400D02*
X290497D01*
X289498D01*
Y464398D01*
X288498Y463398D01*
X322700Y369998D02*
X324699D01*
X323700D01*
Y364000D01*
X322700D01*
X324699D01*
X331697Y368998D02*
X330697Y369998D01*
X328698D01*
X327698Y368998D01*
Y365000D01*
X328698Y364000D01*
X330697D01*
X331697Y365000D01*
X337695Y364000D02*
X333696D01*
X337695Y367999D01*
Y368998D01*
X336696Y369998D01*
X334696D01*
X333696Y368998D01*
X116900Y388498D02*
X118899D01*
X117900D01*
Y382500D01*
X116900D01*
X118899D01*
X125897Y387498D02*
X124897Y388498D01*
X122898D01*
X121898Y387498D01*
Y383500D01*
X122898Y382500D01*
X124897D01*
X125897Y383500D01*
X127896Y382500D02*
X129896D01*
X128896D01*
Y388498D01*
X127896Y387498D01*
M02*
