G04*
G04 #@! TF.GenerationSoftware,Altium Limited,Altium Designer,19.1.7 (138)*
G04*
G04 Layer_Color=16711935*
%FSLAX25Y25*%
%MOIN*%
G70*
G01*
G75*
%ADD26R,0.06955X0.06955*%
%ADD27C,0.06955*%
%ADD28C,0.10144*%
%ADD29C,0.09100*%
%ADD31R,0.06601X0.06601*%
%ADD32C,0.06601*%
%ADD55C,0.09200*%
D26*
X125000Y360400D02*
D03*
X185000Y220400D02*
D03*
D27*
X125000Y350400D02*
D03*
Y340400D02*
D03*
Y330400D02*
D03*
Y320400D02*
D03*
Y310400D02*
D03*
Y300400D02*
D03*
Y290400D02*
D03*
Y280400D02*
D03*
Y270400D02*
D03*
Y260400D02*
D03*
Y250400D02*
D03*
Y240400D02*
D03*
Y230400D02*
D03*
Y220400D02*
D03*
X185000Y230400D02*
D03*
Y240400D02*
D03*
Y250400D02*
D03*
Y260400D02*
D03*
Y270400D02*
D03*
Y280400D02*
D03*
Y290400D02*
D03*
Y300400D02*
D03*
Y310400D02*
D03*
Y320400D02*
D03*
Y330400D02*
D03*
Y340400D02*
D03*
Y350400D02*
D03*
Y360400D02*
D03*
D28*
X125000Y370400D02*
D03*
X185000D02*
D03*
Y210400D02*
D03*
X125000D02*
D03*
D29*
X339000Y228799D02*
D03*
X421000D02*
D03*
X216050D02*
D03*
X298050D02*
D03*
X307250Y501400D02*
D03*
X239650D02*
D03*
X417050Y502500D02*
D03*
X349450D02*
D03*
X199600Y503000D02*
D03*
X132000D02*
D03*
D31*
X398400Y303200D02*
D03*
D32*
X388400D02*
D03*
D55*
X362050Y237549D02*
D03*
X397950D02*
D03*
X362050Y220049D02*
D03*
X397950D02*
D03*
X239100Y237549D02*
D03*
X275000D02*
D03*
X239100Y220049D02*
D03*
X275000D02*
D03*
X262700Y501400D02*
D03*
X284200D02*
D03*
X372500Y502500D02*
D03*
X394000D02*
D03*
X155050Y503000D02*
D03*
X176550D02*
D03*
M02*
