G04*
G04 #@! TF.GenerationSoftware,Altium Limited,Altium Designer,19.1.7 (138)*
G04*
G04 Layer_Color=8421504*
%FSLAX25Y25*%
%MOIN*%
G70*
G01*
G75*
%ADD16R,0.02559X0.06004*%
%ADD17R,0.06693X0.10472*%
%ADD18R,0.06693X0.06693*%
%ADD19R,0.03150X0.08661*%
%ADD20R,0.03543X0.03937*%
D16*
X325100Y335523D02*
D03*
X330100D02*
D03*
X335100D02*
D03*
X340100D02*
D03*
Y356877D02*
D03*
X335100D02*
D03*
X330100D02*
D03*
X325100D02*
D03*
D17*
X140800Y459600D02*
D03*
X160091D02*
D03*
X140800Y428143D02*
D03*
X160091D02*
D03*
X206491Y427943D02*
D03*
X187200D02*
D03*
X206491Y459400D02*
D03*
X187200D02*
D03*
X257000Y427800D02*
D03*
X237709D02*
D03*
X257000Y459257D02*
D03*
X237709D02*
D03*
D18*
X150446Y419128D02*
D03*
Y468616D02*
D03*
X196846Y468416D02*
D03*
Y418928D02*
D03*
X247354Y468272D02*
D03*
Y418784D02*
D03*
D19*
X289200Y423200D02*
D03*
X294200D02*
D03*
X299200D02*
D03*
X304200D02*
D03*
X289200Y444853D02*
D03*
X304200D02*
D03*
X299200D02*
D03*
X294200D02*
D03*
X321177Y423200D02*
D03*
X326177D02*
D03*
X331177D02*
D03*
X336177D02*
D03*
X321177Y444853D02*
D03*
X336177D02*
D03*
X331177D02*
D03*
X326177D02*
D03*
X353154Y423200D02*
D03*
X358154D02*
D03*
X363154D02*
D03*
X368154D02*
D03*
X353154Y444853D02*
D03*
X368154D02*
D03*
X363154D02*
D03*
X358154D02*
D03*
D20*
X359450Y392800D02*
D03*
X365750D02*
D03*
X292400D02*
D03*
X298699D02*
D03*
X325925D02*
D03*
X332224D02*
D03*
X341400Y319400D02*
D03*
X335101D02*
D03*
X362400Y357400D02*
D03*
X356101D02*
D03*
M02*
